<svg width="36" height="36" viewBox="0 0 36 36" fill="none" xmlns="http://www.w3.org/2000/svg">
<rect width="36" height="36" rx="4" fill="#BDBDDB" fill-opacity="0.17"/>
<path d="M11.1002 13.0333C11.4918 13.4167 12.1085 13.4333 12.5252 13.0833C12.8335 12.8167 13.1002 12.6583 13.2502 12.725C13.6668 12.8917 13.2502 13.5833 13.0002 13.9917C12.7918 14.3417 10.6168 17.2333 10.6168 19.25C10.6168 20.3167 11.0168 21.2 11.7335 21.7333C12.3585 22.2 13.1835 22.3417 13.9335 22.1167C14.8252 21.8583 15.5585 20.95 16.4835 19.8083C17.4918 18.5667 18.8418 16.9417 19.8835 16.9417C21.2418 16.9417 21.2585 17.7833 21.3502 18.4333C18.2002 18.9667 16.8668 21.4917 16.8668 22.9083C16.8668 24.325 18.0668 25.4833 19.5418 25.4833C20.9002 25.4833 23.1168 24.375 23.4502 20.4H24.4585C25.0335 20.4 25.5002 19.9333 25.5002 19.3583C25.5002 18.7833 25.0335 18.3167 24.4585 18.3167H23.4418C23.3168 16.9417 22.5335 14.8167 20.0835 14.8167C18.2085 14.8167 16.6002 16.4083 15.9668 17.1833C15.4835 17.7917 14.2502 19.25 14.0585 19.45C13.8502 19.7 13.4918 20.15 13.1335 20.15C12.7585 20.15 12.5335 19.4583 12.8335 18.55C13.1252 17.6417 14.0002 16.1667 14.3752 15.6167C15.0252 14.6667 15.4585 14.0167 15.4585 12.8833C15.4585 11.075 14.0918 10.5 13.3668 10.5C12.4585 10.5 11.6668 11.025 11.1168 11.5167C10.6752 11.9167 10.6752 12.6167 11.1002 13.0333ZM19.5668 23.4583C19.3085 23.4583 18.9502 23.2417 18.9502 22.8583C18.9502 22.3583 19.5585 21.025 21.3418 20.5583C21.0918 22.8 20.1502 23.4583 19.5668 23.4583Z" fill="#2F4156"/>
</svg>
